<svg id="Calque_1" data-name="Calque 1" xmlns="http://www.w3.org/2000/svg" viewBox="0 0 427.52 233.83">
  <defs>
    <style>
      .cls-1 {
        fill: #0169ae;
      }

      .cls-2 {
        fill: none;
        stroke: #c5c6c6;
        stroke-linecap: round;
        stroke-miterlimit: 10;
        stroke-width: 0.41px;
      }

      .cls-3 {
        fill: #971c79;
      }

      .cls-4 {
        fill: #616971;
      }

      .cls-5 {
        fill: #da9218;
      }

      .cls-6 {
        fill: #b5c529;
      }
    </style>
  </defs>
  <title>background</title>
  <polygon class="cls-1" points="0.31 233.37 0.31 202.37 41.4 233.63 0.31 233.37"/>
  <polygon class="cls-1" points="393.81 0.37 427.31 0.37 427.31 30.62 393.81 0.37"/>
  <path class="cls-2" d="M162,105.84s68.71,58.28,139.11,109.22,169.53,107.46,225,124.2" transform="translate(-155.69 -105.63)"/>
  <path class="cls-2" d="M155.89,122.58C222.33,110.33,273,125.5,287.21,131c37.74,14.59,109.48,52.67,159.63,96S556.91,339,556.91,339" transform="translate(-155.69 -105.63)"/>
  <path class="cls-3" d="M249,105.84c23.93,11.45,50.54,30.23,67.49,46.74s37.37,37.27,56.87,62.46,92.18,124,92.18,124H508S423.51,226.82,407.78,208.13,338.51,123,307.09,106C276,105.84,249,105.84,249,105.84Z" transform="translate(-155.69 -105.63)"/>
  <path class="cls-4" d="M156,166v37s20.31,5.48,35.15,14.25,55.06,36.33,68,49.54,83.51,61.67,101.62,72.47C400.53,339,432,339,432,339s-84.94-45.86-138-88.87S218.24,183,156,166Z" transform="translate(-155.69 -105.63)"/>
  <path class="cls-5" d="M156,227v54s32.18,41.52,41.09,58.26c34.41-.26,41.31,0,41.31,0S181,249.5,156,227Z" transform="translate(-155.69 -105.63)"/>
  <path class="cls-6" d="M410.92,106l49.89-.16s80.86,78.29,121.77,106.73C583,243,583,256.43,583,256.43S445.34,143.5,410.92,106Z" transform="translate(-155.69 -105.63)"/>
  <path class="cls-2" d="M388.11,105.84s84.24,89.85,113.76,126.61c31.5,39.23,81.13,92.21,81.13,92.21" transform="translate(-155.69 -105.63)"/>
  <path class="cls-2" d="M506.18,105.84S558,133.7,583,149.68" transform="translate(-155.69 -105.63)"/>
  <path class="cls-2" d="M155.89,223.62S221,263.5,231.1,272.51c23.33,20.32,79.33,66.75,79.33,66.75" transform="translate(-155.69 -105.63)"/>
</svg>
