<svg id="Calque_1" data-name="Calque 1" xmlns="http://www.w3.org/2000/svg" viewBox="0 0 12.54 12.54">
  <defs>
    <style>
      .cls-1 {
        fill: #fff;
      }
    </style>
  </defs>
  <title>twitter-blanc</title>
  <path class="cls-1" d="M1450.88,10.42a6.27,6.27,0,1,0,6.27,6.27A6.28,6.28,0,0,0,1450.88,10.42Zm2.8,4.84c0,0.06,0,.12,0,0.19a4.11,4.11,0,0,1-6.32,3.46l0.34,0a2.9,2.9,0,0,0,1.79-.62,1.44,1.44,0,0,1-1.35-1l0.27,0a1.44,1.44,0,0,0,.38-0.05,1.44,1.44,0,0,1-1.16-1.42v0a1.44,1.44,0,0,0,.65.18,1.45,1.45,0,0,1-.45-1.93,4.1,4.1,0,0,0,3,1.51,1.44,1.44,0,0,1,2.46-1.32,2.88,2.88,0,0,0,.92-0.35,1.45,1.45,0,0,1-.64.8,2.87,2.87,0,0,0,.83-0.23A2.9,2.9,0,0,1,1453.68,15.26Z" transform="translate(-1444.61 -10.42)"/>
</svg>
