<svg id="Calque_1" data-name="Calque 1" xmlns="http://www.w3.org/2000/svg" viewBox="0 0 12.93 12.93">
  <defs>
    <style>
      .cls-1 {
        fill: #056bb1;
      }
    </style>
  </defs>
  <title>youtube</title>
  <g>
    <path class="cls-1" d="M2188.45,10l-2.13,1a0.09,0.09,0,0,1-.12-0.08V8.84a0.09,0.09,0,0,1,.12-0.08l2.13,1.08A0.09,0.09,0,0,1,2188.45,10Z" transform="translate(-2180.8 -3.42)"/>
    <path class="cls-1" d="M2189.54,7.13H2185a1.62,1.62,0,0,0-1.62,1.62V11a1.62,1.62,0,0,0,1.62,1.62h4.55a1.62,1.62,0,0,0,1.62-1.62V8.75A1.62,1.62,0,0,0,2189.54,7.13Zm-8.74,2.75a6.47,6.47,0,1,1,6.47,6.47A6.47,6.47,0,0,1,2180.8,9.89Z" transform="translate(-2180.8 -3.42)"/>
  </g>
</svg>
