<svg id="Calque_1" data-name="Calque 1" xmlns="http://www.w3.org/2000/svg" viewBox="0 0 12.93 12.93">
  <defs>
    <style>
      .cls-1 {
        fill: #fff;
      }
    </style>
  </defs>
  <title>youtube-blanc</title>
  <g>
    <path class="cls-1" d="M1489.93,15.85l-2.13,1a0.09,0.09,0,0,1-.12-0.08V14.7a0.09,0.09,0,0,1,.12-0.08l2.13,1.08A0.09,0.09,0,0,1,1489.93,15.85Z" transform="translate(-1482.28 -9.28)"/>
    <path class="cls-1" d="M1491,13h-4.55a1.62,1.62,0,0,0-1.62,1.62v2.27a1.62,1.62,0,0,0,1.62,1.62H1491a1.62,1.62,0,0,0,1.62-1.62V14.61A1.62,1.62,0,0,0,1491,13Zm-8.74,2.75a6.47,6.47,0,1,1,6.47,6.47A6.47,6.47,0,0,1,1482.28,15.74Z" transform="translate(-1482.28 -9.28)"/>
  </g>
</svg>
