<?xml version="1.0" encoding="utf-8"?>
<!-- Generator: Adobe Illustrator 20.1.0, SVG Export Plug-In . SVG Version: 6.00 Build 0)  -->
<svg version="1.1" id="Calque_1" xmlns="http://www.w3.org/2000/svg" xmlns:xlink="http://www.w3.org/1999/xlink" x="0px" y="0px"
	 viewBox="0 0 427.5 233.8" style="enable-background:new 0 0 427.5 233.8;" xml:space="preserve">
<style type="text/css">
	.st0{fill:#F7F7F7;}
	.st1{fill:#0169AE;}
	.st2{fill:none;stroke:#C5C6C6;stroke-width:0.41;stroke-linecap:round;stroke-miterlimit:10;}
	.st3{fill:#971C79;}
	.st4{fill:#616971;}
	.st5{fill:#DA9218;}
	.st6{fill:#B5C529;}
</style>
<title>background</title>
<rect y="-0.1" class="st0" width="427.4" height="233.6"/>
<polygon class="st1" points="0.3,233.4 0.3,202.4 41.4,233.6 "/>
<polygon class="st1" points="393.8,0.4 427.3,0.4 427.3,30.6 "/>
<path class="st2" d="M6.3,0.2c0,0,68.7,58.3,139.1,109.2s169.5,107.5,225,124.2"/>
<path class="st2" d="M0.2,16.9c66.4-12.3,117.1,2.9,131.3,8.4C169.3,40,241,78,291.1,121.4s110.1,112,110.1,112"/>
<path class="st3" d="M93.3,0.2c23.9,11.4,50.5,30.2,67.5,46.7s37.4,37.3,56.9,62.5s92.2,124,92.2,124h42.5
	c0,0-84.5-112.2-100.2-130.9S182.8,17.4,151.4,0.4C120.3,0.2,93.3,0.2,93.3,0.2z"/>
<path class="st4" d="M0.3,60.4v37c0,0,20.3,5.5,35.1,14.3s55.1,36.3,68,49.5c12.9,13.2,83.5,61.7,101.6,72.5
	c39.8-0.3,71.2-0.3,71.2-0.3s-84.9-45.9-138-88.9S62.6,77.4,0.3,60.4z"/>
<path class="st5" d="M0.3,121.4v54c0,0,32.2,41.5,41.1,58.3c34.4-0.3,41.3,0,41.3,0S25.3,143.9,0.3,121.4z"/>
<path class="st6" d="M255.2,0.4l49.9-0.2c0,0,80.9,78.3,121.8,106.7c0.4,30.4,0.4,43.9,0.4,43.9S289.6,37.9,255.2,0.4z"/>
<path class="st2" d="M232.4,0.2c0,0,84.2,89.9,113.8,126.6c31.5,39.2,81.1,92.2,81.1,92.2"/>
<path class="st2" d="M350.5,0.2c0,0,51.8,27.9,76.8,43.8"/>
<path class="st2" d="M0.2,118c0,0,65.1,39.9,75.2,48.9c23.3,20.3,79.3,66.8,79.3,66.8"/>
</svg>
