<svg xmlns="http://www.w3.org/2000/svg" viewBox="0 0 1417.15 399.33">
    <defs>
        <style>
            .cls-1{fill:#056ab0;}
        </style>
    </defs>
    <title>bleuf</title>
    <path class="cls-1" d="M357.15,223.63C241.51,136.45,137.47,53.49,23.26,48.82h0l.06.1A24.51,24.51,0,0,1,0,23.32H0A24.39,24.39,0,0,1,25.47,0h0c136.94,7,246.33,99.32,360.9,184.49h0c114.77,86.06,233.24,166.16,383,166h0c152,.19,344.67-82.37,606.16-342.46h0a24.35,24.35,0,0,1,34.44.11h0a24.44,24.44,0,0,1,0,34.52h0C1144.37,306.95,940.49,399.22,769.4,399.33h0c-168.31-.11-296.87-89.45-412.25-175.71Z"/>
</svg>