<svg xmlns="http://www.w3.org/2000/svg" viewBox="0 0 1418.2 499.17"><defs><style>.cls-1{fill:#078acc;stroke-width:0.5px;}</style></defs><title>bleuc</title><g id="Calque_2" data-name="Calque 2"><g id="Calque_1-2" data-name="Calque 1"><path class="cls-1" d="M1259.93,498.9c-145.22-1.44-264.24-120-385-231.44h0C754.28,154.34,632.94,48,503.45,49.11h0c-123.28-.64-272.59,93.65-458,397.23h0A24.33,24.33,0,0,1,12,454.49l-.09-.06h0A24.38,24.38,0,0,1,3.81,421h0C191.68,113.21,352.2.89,503.47.25h0c157,1,283.68,119.64,404.64,231.46h0c120.65,113.44,236.62,219.82,351.82,218.38h0c38.21-.1,77.67-10.7,120.86-37.12h0a24.43,24.43,0,0,1,33.54,8h0a24.42,24.42,0,0,1-8,33.59h0c-49.33,30.43-98.39,44.36-145.84,44.36H1260Z"/></g></g></svg>