<svg xmlns="http://www.w3.org/2000/svg" viewBox="0 0 1436.16 1103.69">
    <defs>
        <style>
            .cls-1{fill:#056ab0;}
            .cls-2{fill:#078acc;stroke-width:0.5px;}
            .cls-2,.cls-8{stroke:#c6c7c8;}
            .cls-3{fill:#981b79;}
            .cls-4{fill:#626a71;}
            .cls-5{fill:#dc931a;}
            .cls-6{fill:#b7c72a;}
            .cls-7,
            .cls-8{fill:none;stroke-linecap:round;stroke-miterlimit:10;stroke-width:0.41px;}
            .cls-7{stroke:#959899;}
        </style>
    </defs>
    <title>Fichier 1</title>
    <g id="Calque_2" data-name="Calque 2">
        <g id="Calque_1-2" data-name="Calque 1">
            <path class="cls-1" d="M375.51,713.6C259.87,626.42,155.83,543.46,41.62,538.79h0l.06.1a24.51,24.51,0,0,1-23.29-25.6h0A24.39,24.39,0,0,1,43.88,490h0c136.94,7,246.33,99.32,360.9,184.49h0c114.77,86.06,233.24,166.16,383,166h0c152,.19,344.67-82.37,606.16-342.46h0a24.35,24.35,0,0,1,34.44.11h0a24.44,24.44,0,0,1,0,34.52h0C1162.73,796.92,958.85,889.19,787.76,889.3h0c-168.31-.11-296.87-89.45-412.25-175.71Z"/>
            <path class="cls-2" d="M1277.86,579.95c-145.22-1.44-264.24-120.05-385.05-231.44h0C772.21,235.39,650.87,129,521.38,130.16h0c-123.28-.64-272.59,93.65-458,397.23h0a24.33,24.33,0,0,1-33.52,8.09h0A24.38,24.38,0,0,1,21.74,502h0C209.61,194.26,370.13,81.94,521.4,81.3h0c157,1,283.68,119.64,404.64,231.46h0c120.65,113.44,236.62,219.82,351.82,218.38h0c38.21-.1,77.67-10.7,120.86-37.12h0a24.43,24.43,0,0,1,33.54,8h0a24.42,24.42,0,0,1-8,33.59h0c-49.33,30.43-98.39,44.36-145.84,44.36h-.53Z"/>
            <path class="cls-3" d="M1120.64,986.54C1049,985.75,985.89,937,923.38,871.17h0c-62.52-66.49-124.95-153.11-189-239.11h0C607.3,458.87,469.73,294.33,339.71,297.27h0c-80.08-.34-172.26,57.5-276,229.77h0a24.44,24.44,0,0,1-33.52,8.31h0a24.41,24.41,0,0,1-8.34-33.56h0c106.59-177.42,211.45-253,317.86-253.33h0c127.45,1.32,234.55,105.18,335.38,227h0C775.6,598.07,869.92,743.4,958.88,837.71h0c59.18,63.31,115.35,100.76,161.76,100h0c37.86-.06,78.6-21.87,125.06-89.15h0c45.91-66.76,93.85-176.69,142.17-340.39h0a24.28,24.28,0,0,1,30.28-16.47h0A24.38,24.38,0,0,1,1434.66,522h0c-49.23,166.43-98,280-148.67,354.17h0c-50.12,73.69-105.87,110.36-165.21,110.36h0s-.08,0-.14,0Z"/>
            <path class="cls-4" d="M921.31,748.58c-166.61-.06-294.09-80.77-402.37-157.85h0c-108.35-78-199.79-150-286.5-148.83h0c-51.34.16-105.95,22.55-172.06,89.59h0a24.37,24.37,0,0,1-34.53.4h0a24.5,24.5,0,0,1-.3-34.52h0c71-72.89,139.78-104.44,206.9-104.25h0c113.2,1.14,207.79,82.5,314.83,157.86h0c107,76.29,224.06,148.84,374,148.76h0c126.42,0,279.89-51.3,474.82-203.85h0a24.42,24.42,0,0,1,34.26,4.17h0a24.47,24.47,0,0,1-4.14,34.23h0c-200,156.8-364.45,214.3-504.75,214.3h0a.38.38,0,0,0-.18,0Z"/>
            <path class="cls-5" d="M510.09,856c-77.86-104-142.6-226.42-208.12-304.72h0c-43.79-52.75-85.63-82.33-126.55-81.88h0c-31.1,0-68.68,16-115.38,62.59h0a24.47,24.47,0,0,1-34.52,0h0a24.51,24.51,0,0,1,0-34.58h0c51.43-51.48,101-76.72,149.9-76.79h0c65.27.45,117.16,43.39,164.06,99.37h0c47.13,56.6,91,129.6,137.64,201.72h0c93.19,145.52,196.33,280.34,333.6,278.7h0c130.44,1.41,317.6-120.17,580.75-499.23h0a24.43,24.43,0,0,1,34-6.11h0a24.51,24.51,0,0,1,6.08,34h0c-266.43,381.82-458.92,518.73-620.81,520.11h0c-128.85-.39-223-89.74-300.62-193.18Z"/>
            <path class="cls-6" d="M1188.18,640.85C1007.39,639.44,842.6,487.72,690.45,342h0C540.06,194.59,397.27,53.58,300.2,56.84h0c-43.2.4-82.89,22.52-124.5,94h0c-40.87,71.2-78.25,189.56-108.87,367.51h0a24.37,24.37,0,0,1-28.18,19.88h0a24.37,24.37,0,0,1-19.93-28.16h0C50,329.19,87.72,206.65,133.33,126.66h0C178.14,47,236.21,7.64,300.2,8h0C436.65,11.33,572,162.27,724.34,306.88h0C874.85,453.24,1037.26,593.54,1188.18,592h0c67.74-.13,135.46-25.92,206.68-94.28h0a24.4,24.4,0,0,1,34.47.58h0a24.4,24.4,0,0,1-.66,34.52h0c-77.41,75.14-159.16,108.07-239.93,108h-.56Z"/>
            <path class="cls-7" d="M19.49,519.08c268.74-307.11,849.14,1172,1412.67,0"/>
            <path class="cls-8" d="M19.49,519.08c610-1221.11,996.78,396.56,1412.67,0"/>
            <path class="cls-8" d="M19.49,519.08c568.3-1403.7,1279.75,546.11,1412.67,0"/>
            <path class="cls-8" d="M19.49,519.08c-59-1092.12,1365.39,398.39,1412.67,0"/>
            <path class="cls-8" d="M18.43,518C-132-571.88,676,1223,1432.14,519.08"/>
            <path class="cls-8" d="M19.49,519.08c512.13-309.77,512.13,762.75,1412.67,0"/>
            <path class="cls-8" d="M44.83,538.27c149.77-96.29,936.12,1332,1387.33-19.19"/>
            <path class="cls-8" d="M19.49,519.08c659.23-1034.6,867.85,888.45,1412.67,0"/>
            <path class="cls-8" d="M19.49,519.08c806.34-772.49,1167.41,1305.7,1412.67,0"/>
        </g>
    </g>
</svg>