<svg xmlns="http://www.w3.org/2000/svg" viewBox="0 0 1432.37 1103.7"><defs><style>.cls-1,.cls-2{fill:none;stroke-linecap:round;stroke-miterlimit:10;stroke-width:0.41px;}.cls-1{stroke:#c6c7c8;}.cls-2{stroke:#959899;}</style></defs><title>fils</title><g id="Calque_2" data-name="Calque 2"><g id="Calque_1-2" data-name="Calque 1"><path class="cls-1" d="M19.49,519.08c806.34-772.49,1167.41,1305.7,1412.67,0"/><path class="cls-1" d="M19.49,519.08c659.23-1034.6,867.85,888.45,1412.67,0"/><path class="cls-1" d="M44.83,538.27C194.6,442,981,1870.27,1432.16,519.08"/><path class="cls-1" d="M18.43,518C-132-571.88,676,1223,1432.14,519.08"/><path class="cls-1" d="M19.49,519.08c-59-1092.12,1365.39,398.39,1412.67,0"/><path class="cls-1" d="M19.49,519.08c610-1221.11,996.78,396.56,1412.67,0"/><path class="cls-2" d="M19.49,519.08c268.74-307.11,849.14,1172,1412.67,0"/><path class="cls-1" d="M19.49,519.08c568.3-1403.7,1279.75,546.11,1412.67,0"/><path class="cls-1" d="M19.49,519.08c512.13-309.77,512.13,762.75,1412.67,0"/></g></g></svg>