<svg xmlns="http://www.w3.org/2000/svg" viewBox="0 0 1416.93 355.47">
    <defs>
        <style>
            .cls-1{fill:#626a71;}
        </style>
    </defs>
    <title>gris</title>
    <path class="cls-1" d="M902.72,355.46c-166.61-.06-294.09-80.77-402.37-157.85h0c-108.35-78-199.79-150-286.5-148.83h0c-51.34.16-105.95,22.55-172.06,89.59h0a24.37,24.37,0,0,1-34.46.47l-.07-.07h0A24.5,24.5,0,0,1,7,104.25H7C78,31.36,146.74-.19,213.86,0h0c113.2,1.14,207.79,82.5,314.83,157.86h0c107,76.29,224.06,148.84,374,148.76h0c126.42,0,279.89-51.3,474.82-203.85h0a24.42,24.42,0,0,1,34.26,4.17h0a24.47,24.47,0,0,1-4.14,34.23h0c-200,156.8-364.45,214.3-504.75,214.3h0a.38.38,0,0,0-.18,0Z"/>
</svg>