<svg id="Calque_1" data-name="Calque 1" xmlns="http://www.w3.org/2000/svg" viewBox="0 0 219.44 68.95">
  <defs>
    <style>
      .cls-1 {
        fill: #626a71;
      }

      .cls-2, .cls-3, .cls-4 {
        fill: none;
        stroke-miterlimit: 10;
      }

      .cls-2 {
        stroke: #626a71;
      }

      .cls-3 {
        stroke: #c6c7c8;
      }

      .cls-3, .cls-4 {
        stroke-linecap: round;
        stroke-width: 0.41px;
      }

      .cls-4 {
        stroke: #959899;
      }

      .cls-5 {
        fill: #056ab0;
      }

      .cls-6 {
        fill: #078acc;
      }

      .cls-7 {
        fill: #981b79;
      }

      .cls-8 {
        fill: #dc931a;
      }

      .cls-9 {
        fill: #b7c72a;
      }
    </style>
  </defs>
  <title>logo</title>
  <g>
    <path class="cls-1" d="M2186.49,70.07V82a7.16,7.16,0,0,1-14.33,0V70.07h2.35V82a4.8,4.8,0,1,0,9.61,0V70.07h2.37Z" transform="translate(-2099.54 -38.33)"/>
    <path class="cls-1" d="M2190,70.07h6.75a4.51,4.51,0,0,1,4.46,4.47,4.3,4.3,0,0,1-.79,2.53l0,0,0,0a5.64,5.64,0,0,1,2,1.32,6,6,0,0,1,1.79,4.31,6.17,6.17,0,0,1-6.07,6.12H2190V70.07h0Zm6.75,6.6a2.15,2.15,0,0,0,0-4.3h-4.41v4.3h4.41Zm1.37,9.9a3.87,3.87,0,0,0,3.72-3.83,3.78,3.78,0,0,0-3.72-3.77h-5.78v7.6h5.78Z" transform="translate(-2099.54 -38.33)"/>
    <path class="cls-1" d="M2206.8,70.07h11.88v2.3h-9.5v4.4h5.23V79.1h-5.23v9.77h-2.37V70.07Z" transform="translate(-2099.54 -38.33)"/>
    <path class="cls-1" d="M2235,83.85l1.85,1.37a9.72,9.72,0,0,1-7.84,3.93,9.83,9.83,0,1,1,7.86-15.7L2235,74.82a7.37,7.37,0,0,0-6-3A7.51,7.51,0,1,0,2235,83.85Z" transform="translate(-2099.54 -38.33)"/>
  </g>
  <g>
    <path class="cls-1" d="M2191.52,103.47l1.06,2.64H2192l-1.23-2.62v-0.14l2.1-2.62h0.7Zm1.77,0,1.06,2.64h-0.59l-1.23-2.62v-0.14l2.1-2.62h0.7Z" transform="translate(-2099.54 -38.33)"/>
    <path class="cls-1" d="M2204.2,104.32h-3.65l-1.33,2.82h-0.84l4.86-10.07H2204l1.36,10.07h-0.79Zm-3.3-.74h3.2l-0.66-5.37Z" transform="translate(-2099.54 -38.33)"/>
    <path class="cls-1" d="M2209.12,106.56a1.86,1.86,0,0,0,1.92-1.74h0.72a3.13,3.13,0,0,1-.92,1.8,2.38,2.38,0,0,1-1.77.65,2,2,0,0,1-1.59-.7,3,3,0,0,1-.57-1.94,10.78,10.78,0,0,1,.17-1.81,4.57,4.57,0,0,1,1.07-2.51,2.62,2.62,0,0,1,2.05-.81,1.89,1.89,0,0,1,1.53.74,2.87,2.87,0,0,1,.47,1.93h-0.74a2.24,2.24,0,0,0-.28-1.42,1.25,1.25,0,0,0-1-.52q-1.87-.06-2.3,2.6l-0.14,1.1,0,0.5v0.22Q2207.66,106.51,2209.12,106.56Z" transform="translate(-2099.54 -38.33)"/>
    <path class="cls-1" d="M2215.42,106.56a1.86,1.86,0,0,0,1.92-1.74h0.72a3.13,3.13,0,0,1-.92,1.8,2.38,2.38,0,0,1-1.77.65,2,2,0,0,1-1.59-.7,3,3,0,0,1-.57-1.94,10.78,10.78,0,0,1,.17-1.81,4.57,4.57,0,0,1,1.07-2.51,2.62,2.62,0,0,1,2.05-.81,1.89,1.89,0,0,1,1.53.74,2.87,2.87,0,0,1,.47,1.93h-0.74a2.24,2.24,0,0,0-.28-1.42,1.25,1.25,0,0,0-1-.52q-1.87-.06-2.3,2.6l-0.14,1.1,0,0.5v0.22Q2214,106.51,2215.42,106.56Z" transform="translate(-2099.54 -38.33)"/>
    <path class="cls-1" d="M2221.86,107.28a2,2,0,0,1-1.81-.94,3.67,3.67,0,0,1-.42-2.45l0.08-.69a5,5,0,0,1,1.06-2.74,2.58,2.58,0,0,1,2.12-.94,1.89,1.89,0,0,1,1.42.59,2.48,2.48,0,0,1,.57,1.55,6.31,6.31,0,0,1,0,1.15l-0.09.66h-4.28l-0.07.43a4.5,4.5,0,0,0,0,.91,2,2,0,0,0,.44,1.27,1.45,1.45,0,0,0,1.11.5,2.11,2.11,0,0,0,1-.21,3.44,3.44,0,0,0,.84-0.59l0.36,0.53A2.75,2.75,0,0,1,2221.86,107.28Zm1-7a1.81,1.81,0,0,0-1.45.59,4,4,0,0,0-.86,1.92h3.56l0-.21a4.38,4.38,0,0,0,0-.78,1.8,1.8,0,0,0-.37-1.09A1.23,1.23,0,0,0,2222.85,100.23Zm1.28-3.65h1l-1.86,1.92h-0.77Z" transform="translate(-2099.54 -38.33)"/>
    <path class="cls-1" d="M2226.5,107.14h-0.77l1.85-10.62h0.77Z" transform="translate(-2099.54 -38.33)"/>
    <path class="cls-1" d="M2231.18,107.28a2,2,0,0,1-1.81-.94,3.67,3.67,0,0,1-.42-2.45l0.08-.69a5,5,0,0,1,1.06-2.74,2.58,2.58,0,0,1,2.12-.94,1.89,1.89,0,0,1,1.42.59,2.48,2.48,0,0,1,.57,1.55,6.31,6.31,0,0,1,0,1.15l-0.09.66h-4.28l-0.07.43a4.5,4.5,0,0,0,0,.91,2,2,0,0,0,.44,1.27,1.45,1.45,0,0,0,1.11.5,2.11,2.11,0,0,0,1-.21,3.44,3.44,0,0,0,.84-0.59l0.36,0.53A2.75,2.75,0,0,1,2231.18,107.28Zm1-7a1.81,1.81,0,0,0-1.45.59,4,4,0,0,0-.86,1.92h3.56l0-.21a4.38,4.38,0,0,0,0-.78,1.8,1.8,0,0,0-.37-1.09A1.23,1.23,0,0,0,2232.16,100.23Zm1.28-3.65h1l-1.86,1.92h-0.77Z" transform="translate(-2099.54 -38.33)"/>
    <path class="cls-1" d="M2239,100.36a3,3,0,0,0-.47-0.06,1.74,1.74,0,0,0-1.19.46,2.37,2.37,0,0,0-.75,1.2l-0.88,5.17H2235l1.3-7.48H2237l-0.24,1.12a2.09,2.09,0,0,1,1.87-1.28,2.22,2.22,0,0,1,.48.1Z" transform="translate(-2099.54 -38.33)"/>
    <path class="cls-1" d="M2242.82,107.14a2.42,2.42,0,0,1,0-.52l0.06-.52a2.58,2.58,0,0,1-2.15,1.18,1.65,1.65,0,0,1-1.34-.58,2,2,0,0,1-.39-1.47,2.35,2.35,0,0,1,.94-1.79,3.48,3.48,0,0,1,2.18-.66h1.27l0.15-1.05a1.49,1.49,0,0,0-.22-1.09,1.23,1.23,0,0,0-1-.41,1.7,1.7,0,0,0-1.17.39,1.89,1.89,0,0,0-.63,1.09h-0.75a2.48,2.48,0,0,1,.88-1.59,2.57,2.57,0,0,1,1.75-.61,1.92,1.92,0,0,1,1.51.61,2.11,2.11,0,0,1,.42,1.63l-0.63,3.82a4.76,4.76,0,0,0-.06.75v0.82h-0.79Zm-2-.59a2.1,2.1,0,0,0,1.19-.34,2.79,2.79,0,0,0,.91-1l0.31-1.83h-1.07a2.84,2.84,0,0,0-1.69.47,1.72,1.72,0,0,0-.73,1.28,1.38,1.38,0,0,0,.22,1A1.05,1.05,0,0,0,2240.87,106.55Z" transform="translate(-2099.54 -38.33)"/>
    <path class="cls-1" d="M2248.22,97.74l-0.33,1.91h1.24l-0.12.69h-1.24l-0.83,5,0,0.37q0,0.81.54,0.82l0.54,0,0,0.69a1.84,1.84,0,0,1-.69.1,1,1,0,0,1-.78-0.35,1.63,1.63,0,0,1-.3-1,4.92,4.92,0,0,1,0-.65l0.82-5h-1.12l0.12-.69h1.12l0.34-1.91h0.76Z" transform="translate(-2099.54 -38.33)"/>
    <path class="cls-1" d="M2252.07,107.28a2,2,0,0,1-1.81-.94,3.67,3.67,0,0,1-.42-2.45l0.08-.69a5,5,0,0,1,1.06-2.74,2.58,2.58,0,0,1,2.12-.94,1.89,1.89,0,0,1,1.42.59,2.48,2.48,0,0,1,.57,1.55,6.31,6.31,0,0,1,0,1.15l-0.09.66h-4.28l-0.07.43a4.5,4.5,0,0,0,0,.91,2,2,0,0,0,.44,1.27,1.45,1.45,0,0,0,1.11.5,2.11,2.11,0,0,0,1-.21,3.44,3.44,0,0,0,.84-0.59l0.36,0.53A2.75,2.75,0,0,1,2252.07,107.28Zm1-7a1.81,1.81,0,0,0-1.45.59,4,4,0,0,0-.86,1.92h3.56l0-.21a4.38,4.38,0,0,0,0-.78,1.8,1.8,0,0,0-.37-1.09A1.23,1.23,0,0,0,2253.05,100.23Z" transform="translate(-2099.54 -38.33)"/>
    <path class="cls-1" d="M2260,106.25a2.35,2.35,0,0,1-2,1,1.45,1.45,0,0,1-1.2-.57,2.66,2.66,0,0,1-.42-1.63l0-.64,0.8-4.79h0.76l-0.8,4.81a4.73,4.73,0,0,0,0,.65,1.8,1.8,0,0,0,.26,1,0.89,0.89,0,0,0,.75.4,2,2,0,0,0,1.25-.38,1.9,1.9,0,0,0,.76-1l0.94-5.49h0.77l-1.29,7.48h-0.75Z" transform="translate(-2099.54 -38.33)"/>
    <path class="cls-1" d="M2266.6,100.36a3,3,0,0,0-.47-0.06,1.74,1.74,0,0,0-1.19.46,2.37,2.37,0,0,0-.75,1.2l-0.88,5.17h-0.77l1.3-7.48h0.75l-0.24,1.12a2.09,2.09,0,0,1,1.87-1.28,2.22,2.22,0,0,1,.48.1Z" transform="translate(-2099.54 -38.33)"/>
    <path class="cls-1" d="M2273.27,99.52a1.78,1.78,0,0,1,1.71,1.14l0.75-4.15h0.77l-1.85,10.62h-0.71l0.18-1a2.29,2.29,0,0,1-2,1.1,1.65,1.65,0,0,1-1.43-.73,3.46,3.46,0,0,1-.45-2,12.49,12.49,0,0,1,.15-1.54,5.2,5.2,0,0,1,1-2.61A2.28,2.28,0,0,1,2273.27,99.52Zm-2.21,4.24a8.44,8.44,0,0,0-.06,1.19q0.07,1.58,1.31,1.6a2.16,2.16,0,0,0,1.89-1.16l0.65-3.9a1.52,1.52,0,0,0-1.47-1.25q-1.87-.06-2.23,2.81Z" transform="translate(-2099.54 -38.33)"/>
    <path class="cls-1" d="M2278,99.56l-0.42-.39a4.34,4.34,0,0,0,.84-1.83l0.14-.82h0.75l-0.12.83A3.88,3.88,0,0,1,2278,99.56Z" transform="translate(-2099.54 -38.33)"/>
    <path class="cls-1" d="M2282.69,107.14a2.42,2.42,0,0,1,0-.52l0.06-.52a2.58,2.58,0,0,1-2.15,1.18,1.65,1.65,0,0,1-1.34-.58,2,2,0,0,1-.39-1.47,2.35,2.35,0,0,1,.94-1.79,3.48,3.48,0,0,1,2.18-.66h1.27l0.15-1.05a1.49,1.49,0,0,0-.22-1.09,1.23,1.23,0,0,0-1-.41,1.7,1.7,0,0,0-1.17.39,1.89,1.89,0,0,0-.63,1.09h-0.75a2.48,2.48,0,0,1,.88-1.59,2.57,2.57,0,0,1,1.75-.61,1.92,1.92,0,0,1,1.51.61,2.11,2.11,0,0,1,.42,1.63l-0.63,3.82a4.76,4.76,0,0,0-.06.75v0.82h-0.79Zm-2-.59a2.1,2.1,0,0,0,1.19-.34,2.79,2.79,0,0,0,.91-1l0.31-1.83h-1.07a2.84,2.84,0,0,0-1.69.47,1.72,1.72,0,0,0-.73,1.28,1.38,1.38,0,0,0,.22,1A1.05,1.05,0,0,0,2280.74,106.55Z" transform="translate(-2099.54 -38.33)"/>
    <path class="cls-1" d="M2287.39,105.9l2.76-6.25H2291l-3.44,7.48h-0.61l-1.1-7.48h0.75Z" transform="translate(-2099.54 -38.33)"/>
    <path class="cls-1" d="M2293.59,107.28a2,2,0,0,1-1.81-.94,3.67,3.67,0,0,1-.42-2.45l0.08-.69a5,5,0,0,1,1.06-2.74,2.58,2.58,0,0,1,2.12-.94,1.89,1.89,0,0,1,1.42.59,2.48,2.48,0,0,1,.57,1.55,6.31,6.31,0,0,1,0,1.15l-0.09.66h-4.28l-0.07.43a4.5,4.5,0,0,0,0,.91,2,2,0,0,0,.44,1.27,1.45,1.45,0,0,0,1.11.5,2.11,2.11,0,0,0,1-.21,3.44,3.44,0,0,0,.84-0.59l0.36,0.53A2.75,2.75,0,0,1,2293.59,107.28Zm1-7a1.81,1.81,0,0,0-1.45.59,4,4,0,0,0-.86,1.92h3.56l0-.21a4.38,4.38,0,0,0,0-.78,1.8,1.8,0,0,0-.37-1.09A1.23,1.23,0,0,0,2294.57,100.23Z" transform="translate(-2099.54 -38.33)"/>
    <path class="cls-1" d="M2299.4,99.65l-0.24,1.19a2.53,2.53,0,0,1,2.12-1.33,1.59,1.59,0,0,1,1.58,1.73l0,0.4,0,0.63-0.82,4.87h-0.75l0.81-4.89,0-.45q0-1.54-1.07-1.57a1.79,1.79,0,0,0-1.21.5,2.58,2.58,0,0,0-.81,1.21l-0.89,5.21h-0.77l1.3-7.48h0.73Z" transform="translate(-2099.54 -38.33)"/>
    <path class="cls-1" d="M2304.9,107.14h-0.77l1.3-7.48h0.77Zm0.8-9.64a0.61,0.61,0,0,1,.53-0.57,0.49,0.49,0,0,1,.47.57,0.6,0.6,0,0,1-.53.57A0.5,0.5,0,0,1,2305.7,97.49Z" transform="translate(-2099.54 -38.33)"/>
    <path class="cls-1" d="M2311.07,100.36a3,3,0,0,0-.47-0.06,1.74,1.74,0,0,0-1.19.46,2.37,2.37,0,0,0-.75,1.2l-0.88,5.17H2307l1.3-7.48h0.75l-0.24,1.12a2.09,2.09,0,0,1,1.87-1.28,2.22,2.22,0,0,1,.48.1Z" transform="translate(-2099.54 -38.33)"/>
    <path class="cls-1" d="M2315.92,100.61l1.23,2.64,0,0.15L2315,106h-0.71l2-2.74-1.05-2.68h0.6Zm1.83,0,1.23,2.64,0,0.15-2.1,2.63h-0.71l2-2.74-1.05-2.68h0.6Z" transform="translate(-2099.54 -38.33)"/>
  </g>
  <line class="cls-2" x1="72.62" y1="24.84" x2="137.32" y2="24.84"/>
  <g>
    <path class="cls-3" d="M2100.63,62.52c30.47-47.83,40.12,41.07,65.3,0" transform="translate(-2099.54 -38.33)"/>
    <path class="cls-3" d="M2101.8,63.41c6.92-4.45,43.27,61.57,64.13-.89" transform="translate(-2099.54 -38.33)"/>
    <path class="cls-3" d="M2100.63,62.52c23.67-14.32,23.67,35.26,65.3,0" transform="translate(-2099.54 -38.33)"/>
    <path class="cls-3" d="M2100.58,62.47c-7-50.38,30.4,32.59,65.35,0" transform="translate(-2099.54 -38.33)"/>
    <path class="cls-3" d="M2100.63,62.52c-2.73-50.49,63.12,18.42,65.3,0" transform="translate(-2099.54 -38.33)"/>
    <path class="cls-3" d="M2100.63,62.52c37.27-35.71,54,60.36,65.3,0" transform="translate(-2099.54 -38.33)"/>
    <path class="cls-4" d="M2100.63,62.52c12.42-14.2,39.25,54.18,65.3,0" transform="translate(-2099.54 -38.33)"/>
    <path class="cls-3" d="M2100.63,62.52c28.2-56.45,46.08,18.33,65.3,0" transform="translate(-2099.54 -38.33)"/>
    <path class="cls-3" d="M2100.63,62.52c26.27-64.89,59.16,25.24,65.3,0" transform="translate(-2099.54 -38.33)"/>
    <path class="cls-5" d="M2117.09,71.51c-5.35-4-10.16-7.87-15.43-8.08h0a1.13,1.13,0,0,1-1.08-1.18h0a1.13,1.13,0,0,1,1.18-1.07h0c6.33,0.33,11.39,4.59,16.68,8.53h0c5.31,4,10.78,7.68,17.7,7.67h0c7,0,15.93-3.81,28-15.83h0a1.13,1.13,0,0,1,1.59,0h0a1.13,1.13,0,0,1,0,1.6h0c-12.28,12.22-21.7,16.48-29.61,16.49h0c-7.78,0-13.72-4.14-19.06-8.12h0Z" transform="translate(-2099.54 -38.33)"/>
    <path class="cls-6" d="M2158.8,65.34c-6.71-.07-12.22-5.55-17.8-10.7h0c-5.57-5.23-11.18-10.15-17.17-10.09h0c-5.7,0-12.6,4.33-21.17,18.36h0a1.12,1.12,0,0,1-1.55.37h0a1.13,1.13,0,0,1-.38-1.55h0c8.68-14.22,16.11-19.42,23.1-19.45h0c7.26,0,13.11,5.53,18.71,10.7h0c5.58,5.24,10.94,10.16,16.26,10.09h0a10.54,10.54,0,0,0,5.59-1.72h0a1.13,1.13,0,0,1,1.55.37h0a1.13,1.13,0,0,1-.37,1.55h0a12.75,12.75,0,0,1-6.74,2.05h0Z" transform="translate(-2099.54 -38.33)"/>
    <path class="cls-7" d="M2151.53,84.13c-3.31,0-6.23-2.29-9.12-5.33h0a130.85,130.85,0,0,1-8.74-11.05h0c-5.88-8-12.24-15.61-18.25-15.48h0c-3.7,0-8,2.66-12.76,10.62h0a1.13,1.13,0,0,1-1.55.38h0a1.13,1.13,0,0,1-.39-1.55h0c4.93-8.2,9.77-11.7,14.69-11.71h0c5.89,0.06,10.84,4.86,15.5,10.49h0c4.65,5.67,9,12.39,13.12,16.74h0c2.74,2.93,5.33,4.66,7.48,4.62h0c1.75,0,3.63-1,5.78-4.12h0c2.12-3.09,4.34-8.17,6.57-15.74h0a1.12,1.12,0,0,1,1.4-.76h0a1.13,1.13,0,0,1,.76,1.4h0c-2.28,7.69-4.53,12.95-6.87,16.37h0c-2.32,3.41-4.89,5.1-7.64,5.1h0Z" transform="translate(-2099.54 -38.33)"/>
    <path class="cls-1" d="M2142.32,73.13c-7.7,0-13.6-3.73-18.6-7.3h0c-5-3.61-9.24-6.93-13.24-6.88h0c-2.37,0-4.9,1-8,4.14h0a1.13,1.13,0,0,1-1.6,0h0a1.13,1.13,0,0,1,0-1.6h0c3.28-3.37,6.46-4.83,9.56-4.82h0c5.23,0.05,9.61,3.81,14.55,7.3h0c4.95,3.53,10.36,6.88,17.29,6.88h0c5.84,0,12.94-2.37,21.95-9.42h0a1.13,1.13,0,0,1,1.58.19h0a1.13,1.13,0,0,1-.19,1.58h0c-9.25,7.25-16.85,9.91-23.33,9.91h0Z" transform="translate(-2099.54 -38.33)"/>
    <path class="cls-8" d="M2123.31,78.1c-3.6-4.81-6.59-10.47-9.62-14.09h0c-2-2.44-4-3.81-5.85-3.78h0c-1.44,0-3.18.74-5.33,2.89h0a1.13,1.13,0,0,1-1.6,0h0a1.13,1.13,0,0,1,0-1.6h0c2.38-2.38,4.67-3.55,6.93-3.55h0c3,0,5.42,2,7.58,4.59h0a100.14,100.14,0,0,1,6.36,9.32h0c4.31,6.73,9.08,13,15.42,12.88h0c6,0.07,14.68-5.55,26.85-23.08h0a1.13,1.13,0,0,1,1.57-.28h0a1.13,1.13,0,0,1,.28,1.57h0c-12.32,17.65-21.21,24-28.7,24h0c-6,0-10.31-4.15-13.9-8.93h0Z" transform="translate(-2099.54 -38.33)"/>
    <path class="cls-9" d="M2154.66,68.15c-8.36-.07-16-7.08-23-13.82h0c-7-6.81-13.55-13.33-18-13.18h0c-2,0-3.83,1-5.76,4.35h0c-1.89,3.29-3.62,8.76-5,17h0a1.13,1.13,0,0,1-1.3.92h0a1.13,1.13,0,0,1-.92-1.3h0c1.45-8.36,3.19-14,5.3-17.72h0c2.07-3.68,4.76-5.5,7.71-5.48h0c6.31,0.15,12.57,7.13,19.61,13.82h0c7,6.77,14.47,13.25,21.44,13.18h0c3.13,0,6.26-1.2,9.55-4.36h0a1.13,1.13,0,0,1,1.59,0h0a1.13,1.13,0,0,1,0,1.6h0c-3.58,3.47-7.36,5-11.09,5h0Z" transform="translate(-2099.54 -38.33)"/>
  </g>
</svg>
