<svg xmlns="http://www.w3.org/2000/svg" viewBox="0 0 1417.52 628.56"><defs><style>.cls-1{fill:#dc931a;}</style></defs><title>orange</title><g id="Calque_2" data-name="Calque 2"><g id="Calque_1-2" data-name="Calque 1"><path class="cls-1" d="M491.71,435.38c-77.86-104-142.6-226.42-208.12-304.72h0C239.8,77.91,198,48.33,157,48.78h0c-31.1,0-68.68,16-115.38,62.59h0a24.47,24.47,0,0,1-34.52,0h0a24.51,24.51,0,0,1,0-34.58h0C58.57,25.31,108.14.07,157,0h0C222.31.45,274.2,43.39,321.1,99.37h0c47.13,56.6,91,129.6,137.64,201.72h0c93.19,145.52,196.33,280.34,333.6,278.7h0c130.44,1.41,317.6-120.17,580.75-499.23h0a24.43,24.43,0,0,1,34-6.11h0a24.51,24.51,0,0,1,6.08,34h0C1146.74,490.27,954.25,627.18,792.36,628.56h0c-128.85-.39-223-89.74-300.62-193.18Z"/></g></g></svg>