<svg xmlns="http://www.w3.org/2000/svg" viewBox="0 0 1417.8 632.85"><defs><style>.cls-1{fill:#b7c72a;}</style></defs><title>vert</title><g id="Calque_2" data-name="Calque 2"><g id="Calque_1-2" data-name="Calque 1"><path class="cls-1" d="M1169.82,632.85C989,631.44,824.24,479.72,672.09,334h0C521.7,186.59,378.91,45.58,281.84,48.84h0c-43.2.4-82.89,22.52-124.5,94h0C116.47,214,79.09,332.4,48.47,510.35h0a24.37,24.37,0,0,1-28.15,19.89h0A24.37,24.37,0,0,1,.35,502.12v0h0C31.64,321.19,69.36,198.65,115,118.66h0C159.78,39,217.85-.36,281.84,0h0C418.29,3.33,553.64,154.27,706,298.88h0C856.49,445.24,1018.9,585.54,1169.82,584h0c67.74-.13,135.46-25.92,206.68-94.28h0a24.4,24.4,0,0,1,34.47.58h0a24.4,24.4,0,0,1-.64,34.5l0,0h0c-77.41,75.14-159.16,108.07-239.93,108h-.56Z"/></g></g></svg>