<svg xmlns="http://www.w3.org/2000/svg" viewBox="0 0 1417.34 738.08">
    <defs>
        <style>
            .cls-1{fill:#981b79;}
        </style>
    </defs>
    <title>violet</title>
    <path class="cls-1" d="M1102.31,738.08c-71.64-.79-134.75-49.54-197.26-115.37h0c-62.52-66.49-125-153.11-189-239.11h0C589,210.41,451.4,45.87,321.38,48.81h0c-80.08-.34-172.26,57.5-276,229.77h0a24.44,24.44,0,0,1-33.52,8.31h0A24.41,24.41,0,0,1,3.48,253.4l0-.07h0C110.11,75.91,215,.33,321.38,0h0C448.83,1.32,555.93,105.18,656.76,227h0C757.27,349.61,851.59,494.94,940.55,589.25h0c59.18,63.31,115.35,100.76,161.76,100h0c37.86-.06,78.6-21.87,125.06-89.15h0c45.91-66.76,93.85-176.69,142.17-340.39h0a24.28,24.28,0,0,1,30.1-16.52l.18.05h0a24.38,24.38,0,0,1,16.52,30.26v0h0c-49.23,166.43-98,280-148.67,354.17h0c-50.12,73.69-105.87,110.36-165.21,110.36h-.14Z"/>
</svg>