<svg id="Calque_1" data-name="Calque 1" xmlns="http://www.w3.org/2000/svg" viewBox="0 0 87.76 96.38">
  <defs>
    <style>
      .cls-1, .cls-2 {
        fill: none;
        stroke-linecap: round;
        stroke-miterlimit: 10;
        stroke-width: 0.41px;
      }

      .cls-1 {
        stroke: #c6c7c8;
      }

      .cls-2 {
        stroke: #959899;
      }

      .cls-3 {
        fill: #626a71;
      }

      .cls-4 {
        fill: #056ab0;
      }

      .cls-5 {
        fill: #078acc;
      }

      .cls-6 {
        fill: #981b79;
      }

      .cls-7 {
        fill: #dc931a;
      }

      .cls-8 {
        fill: #b7c72a;
      }
    </style>
  </defs>
  <title>logofooter</title>
  <path class="cls-1" d="M2095.62,1964.16c40.2-63.08,52.92,54.17,86.14,0" transform="translate(-2094.24 -1932.32)"/>
  <path class="cls-1" d="M2097.16,1965.33c9.13-5.87,57.08,81.21,84.59-1.17" transform="translate(-2094.24 -1932.32)"/>
  <path class="cls-1" d="M2095.62,1964.16c31.23-18.89,31.23,46.51,86.14,0" transform="translate(-2094.24 -1932.32)"/>
  <path class="cls-1" d="M2095.56,1964.1c-9.17-66.46,40.1,43,86.2.06" transform="translate(-2094.24 -1932.32)"/>
  <path class="cls-1" d="M2095.62,1964.16c-3.59-66.59,83.25,24.29,86.14,0" transform="translate(-2094.24 -1932.32)"/>
  <path class="cls-1" d="M2095.62,1964.16c49.17-47.1,71.18,79.61,86.14,0" transform="translate(-2094.24 -1932.32)"/>
  <path class="cls-2" d="M2095.62,1964.16c16.39-18.73,51.77,71.46,86.14,0" transform="translate(-2094.24 -1932.32)"/>
  <path class="cls-1" d="M2095.62,1964.16c37.2-74.45,60.78,24.18,86.14,0" transform="translate(-2094.24 -1932.32)"/>
  <path class="cls-1" d="M2095.62,1964.16c34.65-85.59,78,33.3,86.14,0" transform="translate(-2094.24 -1932.32)"/>
  <g>
    <rect class="cls-3" x="12.36" y="73.56" width="67.49" height="0.3"/>
    <path class="cls-3" d="M2123.54,2013.07v9.75a5.87,5.87,0,0,1-11.73,0v-9.75h1.92v9.75a3.93,3.93,0,1,0,7.87,0v-9.75h1.94Z" transform="translate(-2094.24 -1932.32)"/>
    <path class="cls-3" d="M2126.46,2013.07H2132a3.69,3.69,0,0,1,3.65,3.66,3.52,3.52,0,0,1-.65,2.07l0,0,0,0a4.62,4.62,0,0,1,1.62,1.08,4.9,4.9,0,0,1,1.47,3.53,5.06,5.06,0,0,1-5,5h-6.66v-15.39h0Zm5.53,5.41a1.76,1.76,0,0,0,0-3.52h-3.61v3.52H2132Zm1.13,8.11a3.17,3.17,0,0,0,3-3.14,3.1,3.1,0,0,0-3-3.09h-4.73v6.23h4.73Z" transform="translate(-2094.24 -1932.32)"/>
    <path class="cls-3" d="M2140.18,2013.07h9.73V2015h-7.78v3.6h4.28v1.9h-4.28v8h-1.94v-15.39Z" transform="translate(-2094.24 -1932.32)"/>
    <path class="cls-3" d="M2163.26,2024.35l1.51,1.12a8,8,0,0,1-6.42,3.22,8.05,8.05,0,1,1,6.44-12.86l-1.53,1.12a6,6,0,0,0-4.91-2.46A6.15,6.15,0,1,0,2163.26,2024.35Z" transform="translate(-2094.24 -1932.32)"/>
  </g>
  <path class="cls-4" d="M2117.33,1976c-7.05-5.32-13.39-10.37-20.36-10.66h0a1.49,1.49,0,0,1-1.42-1.56h0a1.49,1.49,0,0,1,1.55-1.42h0c8.35,0.43,15,6.06,22,11.25h0c7,5.25,14.22,10.13,23.35,10.12h0c9.27,0,21-5,37-20.88h0a1.48,1.48,0,0,1,2.1,0h0a1.49,1.49,0,0,1,0,2.1h0c-16.19,16.11-28.62,21.74-39.06,21.75h0c-10.26,0-18.1-5.45-25.14-10.71h0Z" transform="translate(-2094.24 -1932.32)"/>
  <path class="cls-5" d="M2172.35,1967.87c-8.85-.09-16.11-7.32-23.48-14.11h0c-7.35-6.9-14.75-13.38-22.65-13.31h0c-7.52,0-16.62,5.71-27.92,24.22h0a1.48,1.48,0,0,1-2,.49h0a1.49,1.49,0,0,1-.5-2h0c11.46-18.76,21.24-25.61,30.47-25.65h0c9.57,0.06,17.3,7.29,24.67,14.11h0c7.36,6.92,14.43,13.4,21.45,13.32h0a13.91,13.91,0,0,0,7.37-2.26h0a1.49,1.49,0,0,1,2,.49h0a1.49,1.49,0,0,1-.49,2h0a16.82,16.82,0,0,1-8.89,2.7h0Z" transform="translate(-2094.24 -1932.32)"/>
  <path class="cls-6" d="M2162.76,1992.66c-4.37,0-8.22-3-12-7h0c-3.81-4.05-7.62-9.34-11.52-14.58h0c-7.75-10.56-16.14-20.59-24.07-20.41h0c-4.88,0-10.5,3.51-16.83,14h0a1.49,1.49,0,0,1-2,.51h0a1.49,1.49,0,0,1-.51-2h0c6.5-10.82,12.89-15.43,19.38-15.45h0c7.77,0.08,14.3,6.41,20.45,13.84h0c6.13,7.47,11.88,16.34,17.3,22.09h0c3.61,3.86,7,6.14,9.86,6.1h0c2.31,0,4.79-1.33,7.63-5.44h0c2.8-4.07,5.72-10.77,8.67-20.75h0a1.48,1.48,0,0,1,1.85-1h0a1.49,1.49,0,0,1,1,1.85h0c-3,10.15-6,17.08-9.06,21.6h0c-3.06,4.49-6.46,6.73-10.07,6.73h0Z" transform="translate(-2094.24 -1932.32)"/>
  <path class="cls-3" d="M2150.61,1978.15c-10.16,0-17.93-4.92-24.53-9.62h0c-6.61-4.76-12.18-9.14-17.47-9.07h0c-3.13,0-6.46,1.37-10.49,5.46h0a1.49,1.49,0,0,1-2.11,0h0a1.49,1.49,0,0,1,0-2.1h0c4.33-4.44,8.52-6.37,12.62-6.36h0c6.9,0.07,12.67,5,19.2,9.63h0c6.53,4.65,13.66,9.08,22.81,9.07h0c7.71,0,17.07-3.13,29-12.43h0a1.49,1.49,0,0,1,2.09.25h0a1.49,1.49,0,0,1-.25,2.09h0c-12.19,9.56-22.22,13.07-30.78,13.07h0Z" transform="translate(-2094.24 -1932.32)"/>
  <path class="cls-7" d="M2125.53,1984.7c-4.75-6.34-8.69-13.81-12.69-18.58h0c-2.67-3.22-5.22-5-7.72-5h0c-1.9,0-4.19,1-7,3.82h0a1.49,1.49,0,0,1-2.1,0h0a1.49,1.49,0,0,1,0-2.11h0c3.14-3.14,6.16-4.68,9.14-4.68h0c4,0,7.14,2.65,10,6.06h0c2.87,3.45,5.55,7.9,8.39,12.3h0c5.68,8.87,12,17.09,20.34,17h0c8,0.09,19.37-7.33,35.41-30.44h0a1.49,1.49,0,0,1,2.07-.37h0a1.49,1.49,0,0,1,.37,2.07h0c-16.24,23.28-28,31.63-37.85,31.71h0c-7.86,0-13.6-5.47-18.33-11.78h0Z" transform="translate(-2094.24 -1932.32)"/>
  <path class="cls-8" d="M2166.88,1971.59c-11-.09-21.07-9.34-30.35-18.22h0c-9.17-9-17.88-17.59-23.79-17.39h0c-2.63,0-5.05,1.37-7.59,5.73h0c-2.49,4.34-4.77,11.56-6.64,22.41h0a1.49,1.49,0,0,1-1.72,1.21h0a1.49,1.49,0,0,1-1.22-1.72h0c1.91-11,4.21-18.5,7-23.38h0c2.73-4.86,6.27-7.26,10.17-7.23h0c8.32,0.2,16.57,9.41,25.86,18.22h0c9.18,8.92,19.08,17.48,28.28,17.39h0c4.13,0,8.26-1.58,12.6-5.75h0a1.49,1.49,0,0,1,2.1,0h0a1.49,1.49,0,0,1,0,2.1h0c-4.72,4.58-9.7,6.59-14.63,6.58h0Z" transform="translate(-2094.24 -1932.32)"/>
</svg>
